<svg xmlns="http://www.w3.org/2000/svg" xmlns:osb="http://www.openswatchbook.org/uri/2009/osb" xmlns:svg="http://www.w3.org/2000/svg" xmlns:xlink="http://www.w3.org/1999/xlink" id="svg6654" width="297mm" height="210mm" version="1.1" viewBox="0 0 1052.362 744.094"><defs id="defs6656"><linearGradient id="linearGradient9873" x1="509.159" x2="428.06" y1="44.837" y2=".137" gradientTransform="translate(-5.5836,1.0285)" gradientUnits="userSpaceOnUse" spreadMethod="pad"><stop offset="0" style="stop-color:#b58900;stop-opacity:1" id="stop9875"/><stop offset="1" style="stop-color:#856500;stop-opacity:1" id="stop9877"/></linearGradient><linearGradient id="linearGradient9851" x1="509.159" x2="428.06" y1="44.837" y2=".137" gradientTransform="translate(-5.5836,1.0285)" gradientUnits="userSpaceOnUse" spreadMethod="pad"><stop offset="0" style="stop-color:#a00;stop-opacity:1" id="stop9853"/><stop offset="1" style="stop-color:#6c0a0a;stop-opacity:1" id="stop9855"/></linearGradient><linearGradient id="linearGradient9424"><stop style="stop-color:#268f87;stop-opacity:1" id="stop9426" offset="0"/><stop style="stop-color:#268f87;stop-opacity:0" id="stop9428" offset="1"/></linearGradient><linearGradient id="linearGradient12509" x1="509.159" x2="428.06" y1="44.837" y2=".137" gradientTransform="translate(-5.5836,1.0285)" gradientUnits="userSpaceOnUse" xlink:href="#linearGradient9407"><stop id="stop9403" style="stop-color:#2aa198;stop-opacity:1" offset="0"/><stop id="stop9405" style="stop-color:#1c6c66;stop-opacity:1" offset="1"/></linearGradient><linearGradient id="linearGradient8990" osb:paint="solid"><stop style="stop-color:#000;stop-opacity:1" id="stop8992" offset="0"/></linearGradient><filter style="color-interpolation-filters:sRGB" id="filter9167"><feFlood id="feFlood9169" flood-color="#000" flood-opacity=".498" result="flood"/><feComposite id="feComposite9171" in="flood" in2="SourceGraphic" operator="in" result="composite1"/><feGaussianBlur id="feGaussianBlur9173" in="composite1" result="blur" stdDeviation="1.7"/><feOffset id="feOffset9175" dx="2.7" dy="3.2" result="offset"/><feComposite id="feComposite9177" in="SourceGraphic" in2="offset" operator="over" result="composite2"/></filter><linearGradient id="linearGradient9407" x1="513.2" x2="428.06" y1="47.867" y2=".137" gradientTransform="translate(-5.5836,1.0285)" gradientUnits="userSpaceOnUse"><stop offset="0" style="stop-color:#d3d3d3" id="stop5707"/><stop offset="1" style="stop-color:#fff" id="stop5709"/></linearGradient><linearGradient id="linearGradient9430" x1="207.595" x2="248.716" y1="272.761" y2="273.916" gradientUnits="userSpaceOnUse" xlink:href="#linearGradient9424"/><linearGradient id="linearGradient9650" x1="207.595" x2="248.716" y1="272.761" y2="273.916" gradientTransform="translate(0,68.58603)" gradientUnits="userSpaceOnUse" xlink:href="#linearGradient9424"/><linearGradient id="linearGradient9652" x1="509.159" x2="428.06" y1="44.837" y2=".137" gradientTransform="translate(-5.5836,1.0285)" gradientUnits="userSpaceOnUse" xlink:href="#linearGradient12509"/><linearGradient id="linearGradient9654" x1="509.159" x2="428.06" y1="44.837" y2=".137" gradientTransform="translate(-5.5836,1.0285)" gradientUnits="userSpaceOnUse" xlink:href="#linearGradient12509"/><linearGradient id="linearGradient9831" x1="509.159" x2="428.06" y1="44.837" y2=".137" gradientTransform="translate(-5.5836,1.0285)" gradientUnits="userSpaceOnUse" xlink:href="#linearGradient9851"/><linearGradient id="linearGradient9849" x1="509.159" x2="428.06" y1="44.837" y2=".137" gradientTransform="translate(-5.5836,1.0285)" gradientUnits="userSpaceOnUse" xlink:href="#linearGradient9873"/></defs><metadata id="metadata6659"/><g id="layer1" transform="translate(0,-308.26772)"><g id="g9020" transform="matrix(1,0,0,1.03616,-11.428571,294.19464)"><g id="g9229" transform="matrix(0.85690424,0,0,0.85207019,7.9434853,12.057662)"><rect id="rect7554" width="465.965" height="250.379" x="55.485" y="81.535" style="fill:none;fill-opacity:1;stroke:#657b83;stroke-width:3.44908571;stroke-linejoin:bevel;stroke-miterlimit:4;stroke-dasharray:none;stroke-opacity:1" rx="32.176" ry="34.401"/><text xml:space="preserve" style="font-style:normal;font-variant:normal;font-weight:700;font-stretch:normal;line-height:0%;font-family:sans-serif;-inkscape-font-specification:'sans-serif, Bold';text-align:start;letter-spacing:0;word-spacing:0;writing-mode:lr-tb;text-anchor:start;fill:#657b83;fill-opacity:1;stroke:none;stroke-width:1px;stroke-linecap:butt;stroke-linejoin:miter;stroke-opacity:1" id="text9016" x="121.392" y="130.654"><tspan id="tspan9018" x="121.392" y="130.654" style="font-style:normal;font-variant:normal;font-weight:700;font-stretch:normal;font-size:36.83985138px;line-height:125%;font-family:sans-serif;-inkscape-font-specification:'sans-serif, Bold';text-align:start;writing-mode:lr-tb;text-anchor:start">Controller Nodes</tspan></text><rect width="131.557" rx="9.084" ry="9.359" style="fill:#fcf4d7;fill-opacity:1;stroke:#657b83;stroke-width:3.44908547;stroke-linejoin:bevel;stroke-miterlimit:4;stroke-dasharray:none;stroke-opacity:1;filter:url(#filter9167)" id="rect9045" height="68.121" x="73.987" y="151.989"/><rect id="rect9181" width="131.557" height="68.121" x="223.194" y="152.679" style="fill:#fcf4d7;fill-opacity:1;stroke:#657b83;stroke-width:3.44908547;stroke-linejoin:bevel;stroke-miterlimit:4;stroke-dasharray:none;stroke-opacity:1;filter:url(#filter9167)" rx="9.084" ry="9.359"/><rect width="131.557" rx="9.084" ry="9.359" style="fill:#fcf4d7;fill-opacity:1;stroke:#657b83;stroke-width:3.44908547;stroke-linejoin:bevel;stroke-miterlimit:4;stroke-dasharray:none;stroke-opacity:1;filter:url(#filter9167)" id="rect9183" height="68.121" x="375.727" y="154.629"/><rect id="rect9187" width="131.557" height="68.121" x="74.11" y="238.066" style="fill:#a00;fill-opacity:1;stroke:#657b83;stroke-width:3.44908547;stroke-linejoin:bevel;stroke-miterlimit:4;stroke-dasharray:none;stroke-opacity:1;filter:url(#filter9167)" rx="9.084" ry="9.359"/><text id="text9189" x="90.697" y="285.393" transform="scale(1.0179194,0.98239605)" style="font-style:normal;font-weight:400;line-height:0%;font-family:sans-serif;letter-spacing:0;word-spacing:0;fill:#fff;fill-opacity:1;stroke:none;stroke-width:1px;stroke-linecap:butt;stroke-linejoin:miter;stroke-opacity:1" xml:space="preserve"><tspan style="font-style:normal;font-variant:normal;font-weight:400;font-stretch:normal;font-size:17.19193077px;line-height:125%;font-family:sans-serif;-inkscape-font-specification:'sans-serif, Normal';text-align:start;writing-mode:lr-tb;text-anchor:start" id="tspan9191" x="90.697" y="285.393">Interface 1</tspan></text><text id="text9201" x="113.853" y="185.75" transform="scale(1.0179194,0.98239605)" style="font-style:normal;font-weight:400;line-height:0%;font-family:sans-serif;letter-spacing:0;word-spacing:0;fill:#657b83;fill-opacity:1;stroke:none;stroke-width:1px;stroke-linecap:butt;stroke-linejoin:miter;stroke-opacity:1" xml:space="preserve"><tspan style="font-style:normal;font-variant:normal;font-weight:700;font-stretch:normal;font-size:17.19193077px;line-height:125%;font-family:sans-serif;-inkscape-font-specification:'sans-serif, Bold';text-align:start;writing-mode:lr-tb;text-anchor:start;fill:#657b83;fill-opacity:1" id="tspan9203" x="113.853" y="185.75">1-2</tspan><tspan id="tspan9205" style="font-style:normal;font-variant:normal;font-weight:700;font-stretch:normal;font-size:17.19193077px;line-height:125%;font-family:sans-serif;-inkscape-font-specification:'sans-serif, Bold';text-align:start;writing-mode:lr-tb;text-anchor:start;fill:#657b83;fill-opacity:1" x="113.853" y="207.24">CPU</tspan></text><text xml:space="preserve" style="font-style:normal;font-weight:400;line-height:0%;font-family:sans-serif;letter-spacing:0;word-spacing:0;fill:#657b83;fill-opacity:1;stroke:none;stroke-width:1px;stroke-linecap:butt;stroke-linejoin:miter;stroke-opacity:1" id="text9213" x="262.616" y="187.154" transform="scale(1.0179194,0.98239605)"><tspan x="262.616" y="187.154" style="font-style:normal;font-variant:normal;font-weight:700;font-stretch:normal;font-size:17.19193077px;line-height:125%;font-family:sans-serif;-inkscape-font-specification:'sans-serif, Bold';text-align:start;writing-mode:lr-tb;text-anchor:start;fill:#657b83;fill-opacity:1" id="tspan9217">8 GB</tspan><tspan id="tspan9221" x="262.616" y="208.644" style="font-style:normal;font-variant:normal;font-weight:700;font-stretch:normal;font-size:17.19193077px;line-height:125%;font-family:sans-serif;-inkscape-font-specification:'sans-serif, Bold';text-align:start;writing-mode:lr-tb;text-anchor:start;fill:#657b83;fill-opacity:1">RAM</tspan></text><text id="text9223" x="397.345" y="187.856" transform="scale(1.0179194,0.98239605)" style="font-style:normal;font-weight:400;line-height:0%;font-family:sans-serif;letter-spacing:0;word-spacing:0;fill:#657b83;fill-opacity:1;stroke:none;stroke-width:1px;stroke-linecap:butt;stroke-linejoin:miter;stroke-opacity:1" xml:space="preserve"><tspan id="tspan9225" style="font-style:normal;font-variant:normal;font-weight:700;font-stretch:normal;font-size:17.19193077px;line-height:125%;font-family:sans-serif;-inkscape-font-specification:'sans-serif, Bold';text-align:start;writing-mode:lr-tb;text-anchor:start;fill:#657b83;fill-opacity:1" x="397.345" y="187.856">100+ GB</tspan><tspan style="font-style:normal;font-variant:normal;font-weight:700;font-stretch:normal;font-size:17.19193077px;line-height:125%;font-family:sans-serif;-inkscape-font-specification:'sans-serif, Bold';text-align:start;writing-mode:lr-tb;text-anchor:start;fill:#657b83;fill-opacity:1" id="tspan9227" x="397.345" y="209.345">Storage</tspan></text></g><g id="g9715"><rect width="389.185" rx="26.874" ry="29.044" style="fill:none;fill-opacity:1;stroke:#657b83;stroke-width:2.9471879;stroke-linejoin:bevel;stroke-miterlimit:4;stroke-dasharray:none;stroke-opacity:1" id="rect9251" height="211.391" x="489.855" y="81.531"/><text id="text9253" x="547.85" y="122.34" transform="scale(0.99461923,1.0054099)" style="font-style:normal;font-variant:normal;font-weight:700;font-stretch:normal;line-height:0%;font-family:sans-serif;-inkscape-font-specification:'sans-serif, Bold';text-align:start;letter-spacing:0;word-spacing:0;writing-mode:lr-tb;text-anchor:start;fill:#657b83;fill-opacity:1;stroke:none;stroke-width:1px;stroke-linecap:butt;stroke-linejoin:miter;stroke-opacity:1" xml:space="preserve"><tspan style="font-style:normal;font-variant:normal;font-weight:700;font-stretch:normal;font-size:30.93595314px;line-height:125%;font-family:sans-serif;-inkscape-font-specification:'sans-serif, Bold';text-align:start;writing-mode:lr-tb;text-anchor:start" id="tspan9255" x="547.85" y="122.34">Compute Nodes</tspan></text><rect id="rect9257" width="131.557" height="68.121" x="73.987" y="151.989" rx="9.084" ry="9.359" transform="matrix(0.83522306,0,0,0.84428441,443.51264,12.692276)" style="fill:#fcf4d7;fill-opacity:1;stroke:#657b83;stroke-width:3.50963664;stroke-linejoin:bevel;stroke-miterlimit:4;stroke-dasharray:none;stroke-opacity:1;filter:url(#filter9167)"/><rect id="rect9259" width="131.557" height="68.121" x="223.194" y="152.679" rx="9.084" ry="9.359" transform="matrix(0.83522306,0,0,0.84428441,443.51264,12.692276)" style="fill:#fcf4d7;fill-opacity:1;stroke:#657b83;stroke-width:3.50963664;stroke-linejoin:bevel;stroke-miterlimit:4;stroke-dasharray:none;stroke-opacity:1;filter:url(#filter9167)"/><rect id="rect9261" width="131.557" height="68.121" x="375.727" y="154.629" rx="9.084" ry="9.359" transform="matrix(0.83522306,0,0,0.84428441,443.51264,12.692276)" style="fill:#fcf4d7;fill-opacity:1;stroke:#657b83;stroke-width:3.50963664;stroke-linejoin:bevel;stroke-miterlimit:4;stroke-dasharray:none;stroke-opacity:1;filter:url(#filter9167)"/><g id="g9289" transform="matrix(0.83522306,0,0,0.84428441,443.51264,12.692276)"><rect id="rect9263" width="131.557" height="68.121" x="74.11" y="238.066" style="fill:#a00;fill-opacity:1;stroke:#657b83;stroke-width:3.50963664;stroke-linejoin:bevel;stroke-miterlimit:4;stroke-dasharray:none;stroke-opacity:1;filter:url(#filter9167)" rx="9.084" ry="9.359"/><text id="text9265" x="90.697" y="285.393" transform="scale(1.0179194,0.98239605)" style="font-style:normal;font-weight:400;line-height:0%;font-family:sans-serif;letter-spacing:0;word-spacing:0;fill:#fff;fill-opacity:1;stroke:none;stroke-width:1px;stroke-linecap:butt;stroke-linejoin:miter;stroke-opacity:1" xml:space="preserve"><tspan style="font-style:normal;font-variant:normal;font-weight:400;font-stretch:normal;font-size:17.19193077px;line-height:125%;font-family:sans-serif;-inkscape-font-specification:'sans-serif, Normal';text-align:start;writing-mode:lr-tb;text-anchor:start" id="tspan9267" x="90.697" y="285.393">Interface 1</tspan></text></g><text xml:space="preserve" style="font-style:normal;font-weight:400;line-height:0%;font-family:sans-serif;letter-spacing:0;word-spacing:0;fill:#657b83;fill-opacity:1;stroke:none;stroke-width:1px;stroke-linecap:butt;stroke-linejoin:miter;stroke-opacity:1" id="text9269" x="533.669" y="168.833" transform="scale(1.0124422,0.98771069)"><tspan id="tspan9271" x="533.669" y="168.833" style="font-style:normal;font-variant:normal;font-weight:700;font-stretch:normal;font-size:14.43677807px;line-height:125%;font-family:sans-serif;-inkscape-font-specification:'sans-serif, Bold';text-align:start;writing-mode:lr-tb;text-anchor:start;fill:#657b83;fill-opacity:1">2-4+</tspan><tspan x="533.669" y="186.879" style="font-style:normal;font-variant:normal;font-weight:700;font-stretch:normal;font-size:14.43677807px;line-height:125%;font-family:sans-serif;-inkscape-font-specification:'sans-serif, Bold';text-align:start;writing-mode:lr-tb;text-anchor:start;fill:#657b83;fill-opacity:1" id="tspan9273">CPU</tspan></text><text id="text9275" x="658.592" y="170.011" transform="scale(1.0124422,0.98771069)" style="font-style:normal;font-weight:400;line-height:0%;font-family:sans-serif;letter-spacing:0;word-spacing:0;fill:#657b83;fill-opacity:1;stroke:none;stroke-width:1px;stroke-linecap:butt;stroke-linejoin:miter;stroke-opacity:1" xml:space="preserve"><tspan id="tspan9277" style="font-style:normal;font-variant:normal;font-weight:700;font-stretch:normal;font-size:14.43677807px;line-height:125%;font-family:sans-serif;-inkscape-font-specification:'sans-serif, Bold';text-align:start;writing-mode:lr-tb;text-anchor:start;fill:#657b83;fill-opacity:1" x="658.592" y="170.011">8+ GB</tspan><tspan style="font-style:normal;font-variant:normal;font-weight:700;font-stretch:normal;font-size:14.43677807px;line-height:125%;font-family:sans-serif;-inkscape-font-specification:'sans-serif, Bold';text-align:start;writing-mode:lr-tb;text-anchor:start;fill:#657b83;fill-opacity:1" id="tspan9279" x="658.592" y="188.057">RAM</tspan></text><text xml:space="preserve" style="font-style:normal;font-weight:400;line-height:0%;font-family:sans-serif;letter-spacing:0;word-spacing:0;fill:#657b83;fill-opacity:1;stroke:none;stroke-width:1px;stroke-linecap:butt;stroke-linejoin:miter;stroke-opacity:1" id="text9281" x="771.729" y="170.6" transform="scale(1.0124422,0.98771069)"><tspan x="771.729" y="170.6" style="font-style:normal;font-variant:normal;font-weight:700;font-stretch:normal;font-size:14.43677807px;line-height:125%;font-family:sans-serif;-inkscape-font-specification:'sans-serif, Bold';text-align:start;writing-mode:lr-tb;text-anchor:start;fill:#657b83;fill-opacity:1" id="tspan9283">100+ GB</tspan><tspan id="tspan9285" x="771.729" y="188.646" style="font-style:normal;font-variant:normal;font-weight:700;font-stretch:normal;font-size:14.43677807px;line-height:125%;font-family:sans-serif;-inkscape-font-specification:'sans-serif, Bold';text-align:start;writing-mode:lr-tb;text-anchor:start;fill:#657b83;fill-opacity:1">Storage</tspan></text><g id="g9294" transform="matrix(0.83522306,0,0,0.84428441,568.38064,12.976294)"><rect width="131.557" rx="9.084" ry="9.359" style="fill:#b58900;fill-opacity:1;stroke:#657b83;stroke-width:3.50963664;stroke-linejoin:bevel;stroke-miterlimit:4;stroke-dasharray:none;stroke-opacity:1;filter:url(#filter9167)" id="rect9296" height="68.121" x="74.11" y="238.066"/><text xml:space="preserve" style="font-style:normal;font-weight:400;line-height:0%;font-family:sans-serif;letter-spacing:0;word-spacing:0;fill:#fff;fill-opacity:1;stroke:none;stroke-width:1px;stroke-linecap:butt;stroke-linejoin:miter;stroke-opacity:1" id="text9298" x="90.697" y="285.393" transform="scale(1.0179194,0.98239605)"><tspan id="tspan9300" x="90.697" y="285.393" style="font-style:normal;font-variant:normal;font-weight:400;font-stretch:normal;font-size:17.19193077px;line-height:125%;font-family:sans-serif;-inkscape-font-specification:'sans-serif, Normal';text-align:start;writing-mode:lr-tb;text-anchor:start">Interface 2</tspan></text></g><g id="g9302" transform="matrix(0.83522306,0,0,0.84428441,695.65987,11.04609)"><rect id="rect9304" width="131.557" height="68.121" x="74.11" y="240.352" style="fill:url(#linearGradient9430);fill-opacity:1;stroke:#657b83;stroke-width:3.50963664;stroke-linejoin:bevel;stroke-miterlimit:4;stroke-dasharray:14.03854642,14.03854642;stroke-dashoffset:0;stroke-opacity:1;filter:url(#filter9167)" rx="9.084" ry="9.359"/><text id="text9306" x="90.697" y="285.393" transform="scale(1.0179194,0.98239605)" style="font-style:normal;font-variant:normal;font-weight:400;font-stretch:normal;line-height:0%;font-family:sans-serif;-inkscape-font-specification:'sans-serif, Normal';text-align:start;letter-spacing:0;word-spacing:0;writing-mode:lr-tb;text-anchor:start;fill:#fff;fill-opacity:1;stroke:none;stroke-width:1px;stroke-linecap:butt;stroke-linejoin:miter;stroke-opacity:1" xml:space="preserve"><tspan id="tspan9793" x="90.697" y="285.393" style="font-size:17.54818535px;line-height:1.25">Interface 3</tspan></text></g><g id="layer1-6" transform="matrix(1.2133594,0,0,1.011658,713.0499,-482.10843)"><g id="g12504" transform="translate(-252.77,692.42)"><path d="m 506,38.094 c 12.5,22.5 -17.61,20.74 -26.92,18.972 -10,7.5 -22.5,5 -27.5,-2.5 -7.97,6.82 -32.35,7.8 -27.5,-12.5 -10,-5 -15,-22.5 2.5,-30 -5.87,-14.69 14.33,-22.812 25,-15 5,-17.5 26.77,-13.282 31.92,1.0285 12.5,-7.5 38.15,3.9152 22.5,15 15,7.5 15,20 0,25 z" style="fill:#666" id="path5713"/><path d="m 504.42,35.123 c 12.5,22.5 -17.62,20.739 -26.92,18.971 -10,7.5 -22.5,5 -27.5,-2.5 -7.97,6.82 -32.35,7.8 -27.5,-12.5 -10,-5 -15,-22.5 2.5,-30 -5.87,-14.69 14.32,-22.811 25,-15 5,-17.5 26.77,-13.281 31.92,1.029 12.5,-7.5 38.15,3.9152 22.5,15 15,7.5 15,20 0,25 z" style="fill:url(#linearGradient9654);fill-opacity:1" id="path3762"/><path d="M 508.75,39.094 C 520,61.594 490.36,61.009 480,59.107 c -11.14,8.071 -23.18,6.809 -28.75,-1.263 -8.88,7.34 -33.75,3.75 -31.25,-16.25 -11.14,-5.38 -17,-26.928 2.5,-35 -6.54,-15.808 14.35,-23.406 26.25,-15 5,-15 28.01,-14.15 33.75,1.2505 13.93,-8.0715 40,6.25 27.5,18.75 7.5,3.75 15.46,22.12 -1.25,27.5 z" style="fill:none;stroke:#b2b2b2;stroke-width:1.94195414;stroke-linejoin:round;stroke-dasharray:5.8257545,1.94191816" id="path9593"/></g></g><text xml:space="preserve" style="font-style:normal;font-weight:400;line-height:0%;font-family:sans-serif;letter-spacing:0;word-spacing:0;fill:#000;fill-opacity:1;stroke:none;stroke-width:1px;stroke-linecap:butt;stroke-linejoin:miter;stroke-opacity:1" id="text9420" x="912.299" y="253.598" transform="scale(1.0179195,0.98239597)"><tspan id="tspan9422" x="912.299" y="253.598" style="font-style:normal;font-variant:normal;font-weight:400;font-stretch:normal;font-size:19.64792061px;line-height:125%;font-family:sans-serif;-inkscape-font-specification:'sans-serif, Normal';text-align:start;writing-mode:lr-tb;text-anchor:start;fill:#fff;fill-opacity:1">Internet</tspan></text><path style="fill:#268f87;fill-opacity:1;fill-rule:evenodd;stroke:#268f87;stroke-width:5.8943758;stroke-linecap:round;stroke-linejoin:miter;stroke-miterlimit:4;stroke-dasharray:5.89437557,11.78875115;stroke-dashoffset:0;stroke-opacity:1" id="path9440" d="m 867.85719,242.95379 38.21428,-0.34468"/><rect id="rect9444" width="302.029" height="136.964" x="747.004" y="208.361" style="fill:none;fill-opacity:1;stroke:#657b83;stroke-width:2.9471879;stroke-linejoin:bevel;stroke-miterlimit:4;stroke-dasharray:2.94718807,2.94718807;stroke-dashoffset:0;stroke-opacity:1" rx="20.856" ry="18.818"/><text xml:space="preserve" style="font-style:normal;font-weight:400;line-height:0%;font-family:sans-serif;letter-spacing:0;word-spacing:0;fill:#000;fill-opacity:1;stroke:none;stroke-width:1px;stroke-linecap:butt;stroke-linejoin:miter;stroke-opacity:1" id="text9446" x="833.633" y="318.18" transform="scale(1.0179195,0.98239597)"><tspan id="tspan9450" x="833.633" y="318.18" style="font-style:normal;font-variant:normal;font-weight:400;font-stretch:normal;font-size:17.19193077px;line-height:125%;font-family:sans-serif;-inkscape-font-specification:'sans-serif, Normal';text-align:start;writing-mode:lr-tb;text-anchor:start;fill:#999">only mandatory for</tspan><tspan id="tspan9452" x="833.633" y="339.67" style="font-style:normal;font-variant:normal;font-weight:400;font-stretch:normal;font-size:17.19193077px;line-height:125%;font-family:sans-serif;-inkscape-font-specification:'sans-serif, Normal';text-align:start;writing-mode:lr-tb;text-anchor:start;fill:#999">distributed floating IP</tspan></text></g><flowRoot transform="matrix(1,0,0,0.96510193,11.428574,13.581956)" style="font-style:normal;font-weight:400;line-height:.01%;font-family:sans-serif;letter-spacing:0;word-spacing:0;fill:#000;fill-opacity:1;stroke:none;stroke-width:1px;stroke-linecap:butt;stroke-linejoin:miter;stroke-opacity:1" id="flowRoot9454" xml:space="preserve"><flowRegion id="flowRegion9456"><rect id="rect9458" width="238.571" height="111.429" x="777.143" y="294.094"/></flowRegion><flowPara id="flowPara9460" style="font-size:40px;line-height:1.25"/></flowRoot><g id="g9578" transform="translate(0,79.13836)"><rect width="399.287" rx="27.571" ry="29.312" style="fill:none;fill-opacity:1;stroke:#657b83;stroke-width:2.9471879;stroke-linejoin:bevel;stroke-miterlimit:4;stroke-dasharray:none;stroke-opacity:1" id="rect9470" height="213.341" x="56.918" y="335.215"/><text id="text9472" x="117.346" y="524.694" transform="scale(1.0028326,0.99717538)" style="font-style:normal;font-variant:normal;font-weight:700;font-stretch:normal;line-height:0%;font-family:sans-serif;-inkscape-font-specification:'sans-serif, Bold';text-align:start;letter-spacing:0;word-spacing:0;writing-mode:lr-tb;text-anchor:start;fill:#657b83;fill-opacity:1;stroke:none;stroke-width:1px;stroke-linecap:butt;stroke-linejoin:miter;stroke-opacity:1" xml:space="preserve"><tspan style="font-style:normal;font-variant:normal;font-weight:700;font-stretch:normal;font-size:31.4790554px;line-height:125%;font-family:sans-serif;-inkscape-font-specification:'sans-serif, Bold';text-align:start;writing-mode:lr-tb;text-anchor:start" id="tspan9474" x="117.346" y="524.694">Database Nodes</tspan></text><rect id="rect9476" width="131.557" height="68.121" x="73.987" y="151.989" rx="9.084" ry="9.359" transform="matrix(0.85690424,0,0,0.85207019,9.3720567,298.55503)" style="fill:#fcf4d7;fill-opacity:1;stroke:#657b83;stroke-width:3.44908547;stroke-linejoin:bevel;stroke-miterlimit:4;stroke-dasharray:none;stroke-opacity:1;filter:url(#filter9167)"/><rect id="rect9478" width="131.557" height="68.121" x="223.194" y="152.679" rx="9.084" ry="9.359" transform="matrix(0.85690424,0,0,0.85207019,9.3720567,298.55503)" style="fill:#fcf4d7;fill-opacity:1;stroke:#657b83;stroke-width:3.44908547;stroke-linejoin:bevel;stroke-miterlimit:4;stroke-dasharray:none;stroke-opacity:1;filter:url(#filter9167)"/><rect id="rect9480" width="131.557" height="68.121" x="375.727" y="154.629" rx="9.084" ry="9.359" transform="matrix(0.85690424,0,0,0.85207019,9.3720567,296.62481)" style="fill:#fcf4d7;fill-opacity:1;stroke:#657b83;stroke-width:3.44908547;stroke-linejoin:bevel;stroke-miterlimit:4;stroke-dasharray:none;stroke-opacity:1;filter:url(#filter9167)"/><rect id="rect9482" width="131.557" height="68.121" x="74.11" y="238.066" rx="9.084" ry="9.359" transform="matrix(0.85690424,0,0,0.85207019,9.3720567,151.85974)" style="fill:#a00;fill-opacity:1;stroke:#657b83;stroke-width:3.44908547;stroke-linejoin:bevel;stroke-miterlimit:4;stroke-dasharray:none;stroke-opacity:1;filter:url(#filter9167)"/><text xml:space="preserve" style="font-style:normal;font-weight:400;line-height:0%;font-family:sans-serif;letter-spacing:0;word-spacing:0;fill:#fff;fill-opacity:1;stroke:none;stroke-width:1px;stroke-linecap:butt;stroke-linejoin:miter;stroke-opacity:1" id="text9484" x="86.68" y="398.882" transform="scale(1.0208028,0.97962114)"><tspan id="tspan9486" x="86.68" y="398.882" style="font-style:normal;font-variant:normal;font-weight:400;font-stretch:normal;font-size:14.69022655px;line-height:125%;font-family:sans-serif;-inkscape-font-specification:'sans-serif, Normal';text-align:start;writing-mode:lr-tb;text-anchor:start">Interface 1</tspan></text><text xml:space="preserve" style="font-style:normal;font-weight:400;line-height:0%;font-family:sans-serif;letter-spacing:0;word-spacing:0;fill:#657b83;fill-opacity:1;stroke:none;stroke-width:1px;stroke-linecap:butt;stroke-linejoin:miter;stroke-opacity:1" id="text9488" x="106.467" y="463.487" transform="scale(1.0208028,0.97962114)"><tspan id="tspan9490" x="106.467" y="463.487" style="font-style:normal;font-variant:normal;font-weight:700;font-stretch:normal;font-size:14.69022655px;line-height:125%;font-family:sans-serif;-inkscape-font-specification:'sans-serif, Bold';text-align:start;writing-mode:lr-tb;text-anchor:start;fill:#657b83;fill-opacity:1">1-2</tspan><tspan x="106.467" y="481.849" style="font-style:normal;font-variant:normal;font-weight:700;font-stretch:normal;font-size:14.69022655px;line-height:125%;font-family:sans-serif;-inkscape-font-specification:'sans-serif, Bold';text-align:start;writing-mode:lr-tb;text-anchor:start;fill:#657b83;fill-opacity:1" id="tspan9492">CPU</tspan></text><text id="text9494" x="233.582" y="464.686" transform="scale(1.0208028,0.97962114)" style="font-style:normal;font-weight:400;line-height:0%;font-family:sans-serif;letter-spacing:0;word-spacing:0;fill:#657b83;fill-opacity:1;stroke:none;stroke-width:1px;stroke-linecap:butt;stroke-linejoin:miter;stroke-opacity:1" xml:space="preserve"><tspan id="tspan9496" style="font-style:normal;font-variant:normal;font-weight:700;font-stretch:normal;font-size:14.69022655px;line-height:125%;font-family:sans-serif;-inkscape-font-specification:'sans-serif, Bold';text-align:start;writing-mode:lr-tb;text-anchor:start;fill:#657b83;fill-opacity:1" x="233.582" y="464.686">8 GB</tspan><tspan style="font-style:normal;font-variant:normal;font-weight:700;font-stretch:normal;font-size:14.69022655px;line-height:125%;font-family:sans-serif;-inkscape-font-specification:'sans-serif, Bold';text-align:start;writing-mode:lr-tb;text-anchor:start;fill:#657b83;fill-opacity:1" id="tspan9498" x="233.582" y="483.049">RAM</tspan></text><text xml:space="preserve" style="font-style:normal;font-weight:400;line-height:0%;font-family:sans-serif;letter-spacing:0;word-spacing:0;fill:#657b83;fill-opacity:1;stroke:none;stroke-width:1px;stroke-linecap:butt;stroke-linejoin:miter;stroke-opacity:1" id="text9500" x="348.706" y="463.315" transform="scale(1.0208028,0.97962114)"><tspan x="348.706" y="463.315" style="font-style:normal;font-variant:normal;font-weight:700;font-stretch:normal;font-size:14.69022655px;line-height:125%;font-family:sans-serif;-inkscape-font-specification:'sans-serif, Bold';text-align:start;writing-mode:lr-tb;text-anchor:start;fill:#657b83;fill-opacity:1" id="tspan9502">100+ GB</tspan><tspan id="tspan9504" x="348.706" y="481.678" style="font-style:normal;font-variant:normal;font-weight:700;font-stretch:normal;font-size:14.69022655px;line-height:125%;font-family:sans-serif;-inkscape-font-specification:'sans-serif, Bold';text-align:start;writing-mode:lr-tb;text-anchor:start;fill:#657b83;fill-opacity:1">Storage</tspan></text></g><g id="g9756"><g id="g9618" transform="matrix(0.83522306,0,0,0.84428441,574.09493,229.98642)"><rect id="rect9620" width="131.557" height="68.121" x="74.11" y="238.066" style="fill:#b58900;fill-opacity:1;stroke:#657b83;stroke-width:3.50963664;stroke-linejoin:bevel;stroke-miterlimit:4;stroke-dasharray:none;stroke-opacity:1;filter:url(#filter9167)" rx="9.084" ry="9.359"/><text id="text9622" x="90.697" y="285.393" transform="scale(1.0179194,0.98239605)" style="font-style:normal;font-weight:400;line-height:0%;font-family:sans-serif;letter-spacing:0;word-spacing:0;fill:#fff;fill-opacity:1;stroke:none;stroke-width:1px;stroke-linecap:butt;stroke-linejoin:miter;stroke-opacity:1" xml:space="preserve"><tspan style="font-style:normal;font-variant:normal;font-weight:400;font-stretch:normal;font-size:17.19193077px;line-height:125%;font-family:sans-serif;-inkscape-font-specification:'sans-serif, Normal';text-align:start;writing-mode:lr-tb;text-anchor:start" id="tspan9624" x="90.697" y="285.393">Interface 2</tspan></text></g><g id="g9626" transform="matrix(0.83522306,0,0,0.84428441,701.37415,170.15017)"><rect width="131.557" rx="9.084" ry="9.359" style="fill:url(#linearGradient9650);fill-opacity:1;stroke:#657b83;stroke-width:3.50963716;stroke-linejoin:bevel;stroke-miterlimit:4;stroke-dasharray:none;stroke-dashoffset:0;stroke-opacity:1;filter:url(#filter9167)" id="rect9628" height="68.121" x="74.11" y="308.938"/><text xml:space="preserve" style="font-style:normal;font-variant:normal;font-weight:400;font-stretch:normal;line-height:0%;font-family:sans-serif;-inkscape-font-specification:'sans-serif, Normal';text-align:start;letter-spacing:0;word-spacing:0;writing-mode:lr-tb;text-anchor:start;fill:#fff;fill-opacity:1;stroke:none;stroke-width:1px;stroke-linecap:butt;stroke-linejoin:miter;stroke-opacity:1" id="text9630" x="90.697" y="355.209" transform="scale(1.0179194,0.98239605)"><tspan id="tspan9795" x="90.697" y="355.209" style="font-size:17.54818535px;line-height:1.25">Interface 3</tspan></text></g><g id="g9634" transform="matrix(1.2133594,0,0,1.011658,718.76418,-263.16812)"><g id="g9636" transform="translate(-252.77,692.42)"><path id="path9638" style="fill:#666" d="m 506,38.094 c 12.5,22.5 -17.61,20.74 -26.92,18.972 -10,7.5 -22.5,5 -27.5,-2.5 -7.97,6.82 -32.35,7.8 -27.5,-12.5 -10,-5 -15,-22.5 2.5,-30 -5.87,-14.69 14.33,-22.812 25,-15 5,-17.5 26.77,-13.282 31.92,1.0285 12.5,-7.5 38.15,3.9152 22.5,15 15,7.5 15,20 0,25 z"/><path id="path9640" style="fill:url(#linearGradient9652);fill-opacity:1" d="m 504.42,35.123 c 12.5,22.5 -17.62,20.739 -26.92,18.971 -10,7.5 -22.5,5 -27.5,-2.5 -7.97,6.82 -32.35,7.8 -27.5,-12.5 -10,-5 -15,-22.5 2.5,-30 -5.87,-14.69 14.32,-22.811 25,-15 5,-17.5 26.77,-13.281 31.92,1.029 12.5,-7.5 38.15,3.9152 22.5,15 15,7.5 15,20 0,25 z"/><path id="path9642" style="fill:none;stroke:#b2b2b2;stroke-width:1.94186535;stroke-linejoin:round;stroke-dasharray:none;stroke-miterlimit:4;stroke-dashoffset:0" d="M 508.75,39.094 C 520,61.594 490.36,61.009 480,59.107 c -11.14,8.071 -23.18,6.809 -28.75,-1.263 -8.88,7.34 -33.75,3.75 -31.25,-16.25 -11.14,-5.38 -17,-26.928 2.5,-35 -6.54,-15.808 14.35,-23.406 26.25,-15 5,-15 28.01,-14.15 33.75,1.2505 13.93,-8.0715 40,6.25 27.5,18.75 7.5,3.75 15.46,22.12 -1.25,27.5 z"/></g></g><text id="text9644" x="917.913" y="476.461" transform="scale(1.0179195,0.98239596)" style="font-style:normal;font-weight:400;line-height:0%;font-family:sans-serif;letter-spacing:0;word-spacing:0;fill:#000;fill-opacity:1;stroke:none;stroke-width:1px;stroke-linecap:butt;stroke-linejoin:miter;stroke-opacity:1" xml:space="preserve"><tspan style="font-style:normal;font-variant:normal;font-weight:400;font-stretch:normal;font-size:19.64792061px;line-height:125%;font-family:sans-serif;-inkscape-font-specification:'sans-serif, Normal';text-align:start;writing-mode:lr-tb;text-anchor:start;fill:#fff;fill-opacity:1" id="tspan9646" x="917.913" y="476.461">Internet</tspan></text><path id="path9648" d="m 873.57147,461.8941 38.21428,-0.34468" style="fill:#268f87;fill-opacity:1;fill-rule:evenodd;stroke:#268f87;stroke-width:5.8943758;stroke-linecap:round;stroke-linejoin:miter;stroke-miterlimit:4;stroke-dasharray:5.89437557,11.78875115;stroke-dashoffset:0;stroke-opacity:1"/><g id="g9598" transform="translate(0,57.906116)"><rect width="399.287" rx="27.571" ry="29.312" style="fill:none;fill-opacity:1;stroke:#657b83;stroke-width:2.9471879;stroke-linejoin:bevel;stroke-miterlimit:4;stroke-dasharray:none;stroke-opacity:1" id="rect9506" height="213.341" x="491.203" y="354.517"/><text id="text9508" x="556.103" y="544.051" style="font-style:normal;font-variant:normal;font-weight:700;font-stretch:normal;line-height:0%;font-family:sans-serif;-inkscape-font-specification:'sans-serif, Bold';text-align:start;letter-spacing:0;word-spacing:0;writing-mode:lr-tb;text-anchor:start;fill:#657b83;fill-opacity:1;stroke:none;stroke-width:1px;stroke-linecap:butt;stroke-linejoin:miter;stroke-opacity:1" transform="scale(1.0028326,0.9971754)" xml:space="preserve"><tspan style="font-style:normal;font-variant:normal;font-weight:700;font-stretch:normal;font-size:31.4790554px;line-height:125%;font-family:sans-serif;-inkscape-font-specification:'sans-serif, Bold';text-align:start;writing-mode:lr-tb;text-anchor:start" id="tspan9510" x="556.103" y="544.051">Gateway Nodes</tspan></text><rect width="131.557" rx="9.084" ry="9.359" style="fill:#a00;fill-opacity:1;stroke:#657b83;stroke-width:3.44908547;stroke-linejoin:bevel;stroke-miterlimit:4;stroke-dasharray:none;stroke-opacity:1;filter:url(#filter9167)" id="rect9518" height="68.121" x="569.248" y="260.719" transform="matrix(0.85690424,0,0,0.85207019,19.372057,151.8597)"/><text xml:space="preserve" style="font-style:normal;font-weight:400;line-height:0%;font-family:sans-serif;letter-spacing:0;word-spacing:0;fill:#fff;fill-opacity:1;stroke:none;stroke-width:1px;stroke-linecap:butt;stroke-linejoin:miter;stroke-opacity:1" id="text9520" x="512.115" y="418.586" transform="scale(1.0208028,0.97962114)"><tspan id="tspan9522" x="512.115" y="418.586" style="font-style:normal;font-variant:normal;font-weight:400;font-stretch:normal;font-size:14.69022655px;line-height:125%;font-family:sans-serif;-inkscape-font-specification:'sans-serif, Normal';text-align:start;writing-mode:lr-tb;text-anchor:start">Interface 1</tspan></text><g id="g9799" transform="translate(10,34.743671)"><rect id="rect9512" width="131.557" height="68.121" x="569.125" y="174.643" rx="9.084" ry="9.359" transform="matrix(0.85690424,0,0,0.85207019,9.3720567,265.74159)" style="fill:#fcf4d7;fill-opacity:1;stroke:#657b83;stroke-width:3.44908547;stroke-linejoin:bevel;stroke-miterlimit:4;stroke-dasharray:none;stroke-opacity:1;filter:url(#filter9167)"/><rect id="rect9514" width="131.557" height="68.121" x="718.332" y="175.332" rx="9.084" ry="9.359" transform="matrix(0.85690424,0,0,0.85207019,9.3720567,265.74159)" style="fill:#fcf4d7;fill-opacity:1;stroke:#657b83;stroke-width:3.44908547;stroke-linejoin:bevel;stroke-miterlimit:4;stroke-dasharray:none;stroke-opacity:1;filter:url(#filter9167)"/><rect id="rect9516" width="131.557" height="68.121" x="870.865" y="177.282" rx="9.084" ry="9.359" transform="matrix(0.85690424,0,0,0.85207019,9.3720567,265.74159)" style="fill:#fcf4d7;fill-opacity:1;stroke:#657b83;stroke-width:3.44908547;stroke-linejoin:bevel;stroke-miterlimit:4;stroke-dasharray:none;stroke-opacity:1;filter:url(#filter9167)"/><text id="text9524" x="522.106" y="449.694" transform="scale(1.0208028,0.97962114)" style="font-style:normal;font-weight:400;line-height:0%;font-family:sans-serif;letter-spacing:0;word-spacing:0;fill:#657b83;fill-opacity:1;stroke:none;stroke-width:1px;stroke-linecap:butt;stroke-linejoin:miter;stroke-opacity:1" xml:space="preserve"><tspan style="font-style:normal;font-variant:normal;font-weight:700;font-stretch:normal;font-size:14.69022655px;line-height:125%;font-family:sans-serif;-inkscape-font-specification:'sans-serif, Bold';text-align:start;writing-mode:lr-tb;text-anchor:start;fill:#657b83;fill-opacity:1" id="tspan9526" x="522.106" y="449.694">1-2</tspan><tspan id="tspan9528" style="font-style:normal;font-variant:normal;font-weight:700;font-stretch:normal;font-size:14.69022655px;line-height:125%;font-family:sans-serif;-inkscape-font-specification:'sans-serif, Bold';text-align:start;writing-mode:lr-tb;text-anchor:start;fill:#657b83;fill-opacity:1" x="522.106" y="468.057">CPU</tspan></text><text xml:space="preserve" style="font-style:normal;font-weight:400;line-height:0%;font-family:sans-serif;letter-spacing:0;word-spacing:0;fill:#657b83;fill-opacity:1;stroke:none;stroke-width:1px;stroke-linecap:butt;stroke-linejoin:miter;stroke-opacity:1" id="text9530" x="649.221" y="450.893" transform="scale(1.0208028,0.97962114)"><tspan x="649.221" y="450.893" style="font-style:normal;font-variant:normal;font-weight:700;font-stretch:normal;font-size:14.69022655px;line-height:125%;font-family:sans-serif;-inkscape-font-specification:'sans-serif, Bold';text-align:start;writing-mode:lr-tb;text-anchor:start;fill:#657b83;fill-opacity:1" id="tspan9532">8 GB</tspan><tspan id="tspan9534" x="649.221" y="469.256" style="font-style:normal;font-variant:normal;font-weight:700;font-stretch:normal;font-size:14.69022655px;line-height:125%;font-family:sans-serif;-inkscape-font-specification:'sans-serif, Bold';text-align:start;writing-mode:lr-tb;text-anchor:start;fill:#657b83;fill-opacity:1">RAM</tspan></text><text id="text9536" x="764.345" y="451.493" transform="scale(1.0208028,0.97962114)" style="font-style:normal;font-weight:400;line-height:0%;font-family:sans-serif;letter-spacing:0;word-spacing:0;fill:#657b83;fill-opacity:1;stroke:none;stroke-width:1px;stroke-linecap:butt;stroke-linejoin:miter;stroke-opacity:1" xml:space="preserve"><tspan id="tspan9538" style="font-style:normal;font-variant:normal;font-weight:700;font-stretch:normal;font-size:14.69022655px;line-height:125%;font-family:sans-serif;-inkscape-font-specification:'sans-serif, Bold';text-align:start;writing-mode:lr-tb;text-anchor:start;fill:#657b83;fill-opacity:1" x="764.345" y="451.493">100+ GB</tspan><tspan style="font-style:normal;font-variant:normal;font-weight:700;font-stretch:normal;font-size:14.69022655px;line-height:125%;font-family:sans-serif;-inkscape-font-specification:'sans-serif, Bold';text-align:start;writing-mode:lr-tb;text-anchor:start;fill:#657b83;fill-opacity:1" id="tspan9540" x="764.345" y="469.856">Storage</tspan></text></g></g><g id="g9815" transform="matrix(1.6180194,0,0,1.2406138,19.93195,-541.32924)"><g id="g9817" transform="translate(-252.77,692.42)"><path d="m 506,38.094 c 12.5,22.5 -17.61,20.74 -26.92,18.972 -10,7.5 -22.5,5 -27.5,-2.5 -7.97,6.82 -32.35,7.8 -27.5,-12.5 -10,-5 -15,-22.5 2.5,-30 -5.87,-14.69 14.33,-22.812 25,-15 5,-17.5 26.77,-13.282 31.92,1.0285 12.5,-7.5 38.15,3.9152 22.5,15 15,7.5 15,20 0,25 z" style="fill:#666" id="path9819"/><path d="m 504.42,35.123 c 12.5,22.5 -17.62,20.739 -26.92,18.971 -10,7.5 -22.5,5 -27.5,-2.5 -7.97,6.82 -32.35,7.8 -27.5,-12.5 -10,-5 -15,-22.5 2.5,-30 -5.87,-14.69 14.32,-22.811 25,-15 5,-17.5 26.77,-13.281 31.92,1.029 12.5,-7.5 38.15,3.9152 22.5,15 15,7.5 15,20 0,25 z" style="fill:url(#linearGradient9831);fill-opacity:1" id="path9821"/><path d="M 508.75,39.094 C 520,61.594 490.36,61.009 480,59.107 c -11.14,8.071 -23.18,6.809 -28.75,-1.263 -8.88,7.34 -33.75,3.75 -31.25,-16.25 -11.14,-5.38 -17,-26.928 2.5,-35 -6.54,-15.808 14.35,-23.406 26.25,-15 5,-15 28.01,-14.15 33.75,1.2505 13.93,-8.0715 40,6.25 27.5,18.75 7.5,3.75 15.46,22.12 -1.25,27.5 z" style="fill:none;stroke:#b2b2b2;stroke-width:1.63292913;stroke-linejoin:round;stroke-dasharray:none;stroke-miterlimit:4;stroke-dashoffset:0" id="path9823"/></g></g><text xml:space="preserve" style="font-style:normal;font-weight:400;line-height:0%;font-family:sans-serif;letter-spacing:0;word-spacing:0;fill:#000;fill-opacity:1;stroke:none;stroke-width:1px;stroke-linecap:butt;stroke-linejoin:miter;stroke-opacity:1" id="text9825" x="298.983" y="350.917" transform="scale(1.0134995,0.98668031)"><tspan id="tspan9827" x="298.983" y="350.917" style="font-style:normal;font-variant:normal;font-weight:400;font-stretch:normal;font-size:18.86154366px;line-height:125%;font-family:sans-serif;-inkscape-font-specification:'sans-serif, Normal';text-align:start;writing-mode:lr-tb;text-anchor:start;fill:#fff;fill-opacity:1">Management</tspan><tspan x="298.983" y="374.493" style="font-style:normal;font-variant:normal;font-weight:400;font-stretch:normal;font-size:18.86154366px;line-height:125%;font-family:sans-serif;-inkscape-font-specification:'sans-serif, Normal';text-align:start;writing-mode:lr-tb;text-anchor:start;fill:#fff;fill-opacity:1" id="tspan9857">Network</tspan></text><path style="fill:#a00;fill-opacity:1;fill-rule:evenodd;stroke:#8f0000;stroke-width:5.8943758;stroke-linecap:round;stroke-linejoin:miter;stroke-miterlimit:4;stroke-dasharray:5.89437557,11.78875115;stroke-dashoffset:0;stroke-opacity:1" id="path9829" d="m 424.65743,315.7501 84.61382,-47.22106"/><g id="g9879" transform="translate(34,0)"><g id="g9833" transform="matrix(1.2133594,0,0,1.011658,378.76418,-373.46548)"><g id="g9835" transform="translate(-252.77,692.42)"><path d="m 506,38.094 c 12.5,22.5 -17.61,20.74 -26.92,18.972 -10,7.5 -22.5,5 -27.5,-2.5 -7.97,6.82 -32.35,7.8 -27.5,-12.5 -10,-5 -15,-22.5 2.5,-30 -5.87,-14.69 14.33,-22.812 25,-15 5,-17.5 26.77,-13.282 31.92,1.0285 12.5,-7.5 38.15,3.9152 22.5,15 15,7.5 15,20 0,25 z" style="fill:#666" id="path9837"/><path d="m 504.42,35.123 c 12.5,22.5 -17.62,20.739 -26.92,18.971 -10,7.5 -22.5,5 -27.5,-2.5 -7.97,6.82 -32.35,7.8 -27.5,-12.5 -10,-5 -15,-22.5 2.5,-30 -5.87,-14.69 14.32,-22.811 25,-15 5,-17.5 26.77,-13.281 31.92,1.029 12.5,-7.5 38.15,3.9152 22.5,15 15,7.5 15,20 0,25 z" style="fill:url(#linearGradient9849);fill-opacity:1" id="path9839"/><path d="M 508.75,39.094 C 520,61.594 490.36,61.009 480,59.107 c -11.14,8.071 -23.18,6.809 -28.75,-1.263 -8.88,7.34 -33.75,3.75 -31.25,-16.25 -11.14,-5.38 -17,-26.928 2.5,-35 -6.54,-15.808 14.35,-23.406 26.25,-15 5,-15 28.01,-14.15 33.75,1.2505 13.93,-8.0715 40,6.25 27.5,18.75 7.5,3.75 15.46,22.12 -1.25,27.5 z" style="fill:none;stroke:#b2b2b2;stroke-width:1.94195419;stroke-linejoin:round;stroke-dasharray:none;stroke-miterlimit:4" id="path9841"/></g></g><text xml:space="preserve" style="font-style:normal;font-weight:400;line-height:0%;font-family:sans-serif;letter-spacing:0;word-spacing:0;fill:#000;fill-opacity:1;stroke:none;stroke-width:1px;stroke-linecap:butt;stroke-linejoin:miter;stroke-opacity:1" id="text9843" x="583.898" y="354.364" transform="scale(1.0179195,0.98239596)"><tspan id="tspan9845" x="583.898" y="354.364" style="font-style:normal;font-variant:normal;font-weight:400;font-stretch:normal;font-size:19.64792061px;line-height:125%;font-family:sans-serif;-inkscape-font-specification:'sans-serif, Normal';text-align:start;writing-mode:lr-tb;text-anchor:start;fill:#fff;fill-opacity:1">Overlay</tspan><tspan id="tspan9871" x="583.898" y="378.924" style="font-style:normal;font-variant:normal;font-weight:400;font-stretch:normal;font-size:19.64792061px;line-height:125%;font-family:sans-serif;-inkscape-font-specification:'sans-serif, Normal';text-align:start;writing-mode:lr-tb;text-anchor:start;fill:#fff;fill-opacity:1">Network</tspan></text></g><path id="path9847" d="m 682.1429,270.25244 -0.35715,41.01683" style="fill:#268f87;fill-opacity:1;fill-rule:evenodd;stroke:#b58900;stroke-width:5.8943758;stroke-linecap:round;stroke-linejoin:miter;stroke-miterlimit:4;stroke-dasharray:5.89437557,11.78875115;stroke-dashoffset:0;stroke-opacity:1"/><path id="path9861" d="m 126.54465,274.25279 165.12507,55.0756" style="fill:#a00;fill-opacity:1;fill-rule:evenodd;stroke:#8f0000;stroke-width:5.89437628;stroke-linecap:round;stroke-linejoin:miter;stroke-miterlimit:4;stroke-dasharray:5.89437651,11.78875302;stroke-dashoffset:0;stroke-opacity:1"/><path id="path9863" d="M 127.85719,431.56233 318.92861,371.93282" style="fill:#a00;fill-opacity:1;fill-rule:evenodd;stroke:#8f0000;stroke-width:5.8943758;stroke-linecap:round;stroke-linejoin:miter;stroke-miterlimit:4;stroke-dasharray:5.89437557,11.78875115;stroke-dashoffset:0;stroke-opacity:1"/><path id="path9869" d="M 507.85719,430.18361 424.6429,381.58383" style="fill:#a00;fill-opacity:1;fill-rule:evenodd;stroke:#8f0000;stroke-width:5.8943758;stroke-linecap:round;stroke-linejoin:miter;stroke-miterlimit:4;stroke-dasharray:5.89437557,11.78875115;stroke-dashoffset:0;stroke-opacity:1"/><path style="fill:#268f87;fill-opacity:1;fill-rule:evenodd;stroke:#b58900;stroke-width:5.8943758;stroke-linecap:round;stroke-linejoin:miter;stroke-miterlimit:4;stroke-dasharray:5.89437557,11.78875115;stroke-dashoffset:0;stroke-opacity:1" id="path4800" d="m 687.85719,388.8221 -0.35715,41.01683"/></g></g></g></svg>